<svg fill="#000000" xmlns="http://www.w3.org/2000/svg"  viewBox="0 0 30 30" width="30px" height="30px"><path d="M 26.990234 3.9902344 A 1.0001 1.0001 0 0 0 26.292969 5.7070312 L 26.585938 6 L 26.292969 6.2929688 A 1.0001 1.0001 0 1 0 27.707031 7.7070312 L 28 7.4140625 L 28.292969 7.7070312 A 1.0001 1.0001 0 1 0 29.707031 6.2929688 L 29.414062 6 L 29.707031 5.7070312 A 1.0001 1.0001 0 0 0 28.980469 3.9902344 A 1.0001 1.0001 0 0 0 28.292969 4.2929688 L 28 4.5859375 L 27.707031 4.2929688 A 1.0001 1.0001 0 0 0 26.990234 3.9902344 z M 24 5 C 22.685347 5 21.006001 5.72073 18.75 7.859375 L 18.308594 7.4199219 C 17.749594 6.8609219 16.842203 6.8609219 16.283203 7.4199219 L 15.708984 7.9941406 A 9.5 9.5 0 0 0 11.5 7 A 9.5 9.5 0 0 0 2 16.5 A 9.5 9.5 0 0 0 11.5 26 A 9.5 9.5 0 0 0 21 16.5 A 9.5 9.5 0 0 0 20.009766 12.285156 L 20.580078 11.714844 C 21.139078 11.155844 21.139078 10.248453 20.580078 9.6894531 L 20.164062 9.2753906 C 22.185015 7.3763554 23.44487 7 24 7 A 1.0001 1.0001 0 1 0 24 5 z"/></svg>